<svg width="70" height="70" viewBox="0 0 70 70" fill="none" xmlns="http://www.w3.org/2000/svg">
<circle cx="35" cy="35" r="34" fill="#F6F7F7" stroke="#4FADFF" stroke-width="2"/>
<path d="M47.5 17.5H41.2499C41.2494 17.5 41.2489 17.5001 41.2484 17.5001C40.6777 16.7416 39.7702 16.25 38.75 16.25H37.157C36.7161 15.4877 35.897 15 35 15C34.103 15 33.2839 15.4877 32.843 16.25H31.25C30.2298 16.25 29.3223 16.7416 28.7516 17.5001C28.7511 17.5001 28.7505 17.5 28.75 17.5H22.5C20.7769 17.5 19.375 18.9019 19.375 20.625V51.875C19.375 53.5981 20.7769 55 22.5 55H47.5C49.2231 55 50.625 53.5981 50.625 51.875V20.625C50.625 18.9019 49.2231 17.5 47.5 17.5ZM29.375 19.375C29.375 18.3412 30.2162 17.5 31.25 17.5H33.2398C33.5043 17.5 33.7402 17.3335 33.8287 17.0844C34.0061 16.5853 34.4768 16.25 35 16.25C35.5232 16.25 35.9939 16.5853 36.1712 17.0844C36.2598 17.3335 36.4957 17.5 36.7602 17.5H38.75C39.7838 17.5 40.625 18.3412 40.625 19.375V21.25H29.375V19.375ZM49.375 51.875C49.375 52.9088 48.5338 53.75 47.5 53.75H22.5C21.4662 53.75 20.625 52.9088 20.625 51.875V20.625C20.625 19.5912 21.4662 18.75 22.5 18.75H28.1879C28.1467 18.952 28.125 19.161 28.125 19.375V21.875C28.125 22.2202 28.4048 22.5 28.75 22.5H41.25C41.5952 22.5 41.875 22.2202 41.875 21.875V19.375C41.875 19.161 41.8533 18.952 41.8121 18.75H47.5C48.5338 18.75 49.375 19.5912 49.375 20.625V51.875Z" fill="#4FADFF"/>
<path d="M47.5 20H43.75C43.4048 20 43.125 20.2798 43.125 20.625C43.125 20.9702 43.4048 21.25 43.75 21.25H46.875V51.25H23.125V21.25H26.25C26.5952 21.25 26.875 20.9702 26.875 20.625C26.875 20.2798 26.5952 20 26.25 20H22.5C22.1548 20 21.875 20.2798 21.875 20.625V51.875C21.875 52.2202 22.1548 52.5 22.5 52.5H47.5C47.8452 52.5 48.125 52.2202 48.125 51.875V20.625C48.125 20.2798 47.8452 20 47.5 20Z" fill="#4FADFF"/>
<path d="M35 17.5C34.8352 17.5 34.6742 17.5664 34.5578 17.6828C34.4414 17.7992 34.375 17.9602 34.375 18.125C34.375 18.2891 34.4414 18.4508 34.5578 18.5672C34.6742 18.6836 34.8352 18.75 35 18.75C35.1641 18.75 35.3258 18.6836 35.4422 18.5672C35.5586 18.4508 35.625 18.2898 35.625 18.125C35.625 17.9602 35.5586 17.7992 35.4422 17.6828C35.3258 17.5663 35.1641 17.5 35 17.5Z" fill="#4FADFF"/>
<path d="M25.1831 29.558C24.939 29.8021 24.939 30.1978 25.1831 30.4419L27.0581 32.3169C27.1801 32.4389 27.3401 32.4999 27.5001 32.4999C27.6601 32.4999 27.82 32.4389 27.942 32.3169L31.067 29.1919C31.3112 28.9478 31.3112 28.5521 31.067 28.308C30.8229 28.064 30.4272 28.064 30.1832 28.308L27.5001 30.9911L26.067 29.558C25.8229 29.314 25.4272 29.314 25.1831 29.558Z" fill="#4FADFF"/>
<path d="M31.0669 35.183C30.8229 34.939 30.4272 34.939 30.1831 35.183L27.5 37.8661L26.0669 36.433C25.8229 36.189 25.4272 36.189 25.1831 36.433C24.939 36.6771 24.939 37.0728 25.1831 37.3169L27.0581 39.1919C27.1801 39.3139 27.3401 39.3749 27.5001 39.3749C27.6601 39.3749 27.82 39.3139 27.942 39.1919L31.067 36.0669C31.311 35.8229 31.311 35.4271 31.0669 35.183Z" fill="#4FADFF"/>
<path d="M30.183 42.058L27.5 44.7411L26.0669 43.308C25.8229 43.064 25.4272 43.064 25.1831 43.308C24.939 43.5521 24.939 43.9478 25.1831 44.1919L27.0581 46.0669C27.1801 46.1889 27.3401 46.2499 27.5001 46.2499C27.6601 46.2499 27.82 46.1889 27.942 46.0669L31.067 42.9419C31.3112 42.6978 31.3112 42.3021 31.067 42.058C30.8229 41.814 30.4271 41.814 30.183 42.058Z" fill="#4FADFF"/>
<path d="M33.75 30.625H44.375C44.7202 30.625 45 30.3452 45 30C45 29.6548 44.7202 29.375 44.375 29.375H33.75C33.4048 29.375 33.125 29.6548 33.125 30C33.125 30.3452 33.4048 30.625 33.75 30.625Z" fill="#4FADFF"/>
<path d="M33.75 37.5H44.375C44.7202 37.5 45 37.2202 45 36.875C45 36.5298 44.7202 36.25 44.375 36.25H33.75C33.4048 36.25 33.125 36.5298 33.125 36.875C33.125 37.2202 33.4048 37.5 33.75 37.5Z" fill="#4FADFF"/>
<path d="M33.75 44.375H44.375C44.7202 44.375 45 44.0952 45 43.75C45 43.4048 44.7202 43.125 44.375 43.125H33.75C33.4048 43.125 33.125 43.4048 33.125 43.75C33.125 44.0952 33.4048 44.375 33.75 44.375Z" fill="#4FADFF"/>
</svg>
