<svg width="70" height="70" viewBox="0 0 70 70" fill="none" xmlns="http://www.w3.org/2000/svg">
<circle cx="35" cy="35" r="34" fill="#F6F7F7" stroke="#4FADFF" stroke-width="2"/>
<path d="M50.8203 29.1406C51.8327 29.1406 52.6562 28.317 52.6562 27.3047V27.1875H52.8516C54.0362 27.1875 55 26.2238 55 25.0391V20.3516C55 19.1669 54.0362 18.2031 52.8516 18.2031H52.6562V18.0859C52.6562 17.0736 51.8327 16.25 50.8203 16.25H31.9141C31.1502 16.25 30.4989 16.7399 30.257 17.4219H28.3984C27.6345 17.4219 26.9829 17.9117 26.741 18.5938H22.5391C22.4484 18.5945 22.3584 18.6157 22.277 18.6556L20.3652 19.6116C19.899 19.8446 19.6094 20.3132 19.6094 20.8344V22.1094H15.5859C15.2623 22.1094 15 22.3717 15 22.6953C15 23.0189 15.2623 23.2812 15.5859 23.2812H19.6094V24.5562C19.6094 25.0774 19.899 25.546 20.3652 25.7791L22.277 26.735C22.359 26.7748 22.4491 26.7965 22.5403 26.7969H26.7415C26.9834 27.4788 27.6347 27.9688 28.3985 27.9688H30.2571C30.499 28.6507 31.1503 29.1406 31.9141 29.1406H32.8125V32.9297C32.8125 33.899 33.6011 34.6875 34.5703 34.6875H35.1562V35.2734C35.1562 36.0273 35.7696 36.6406 36.5234 36.6406H37.6766C38.4505 36.6406 39.1251 37.1372 39.355 37.8763L40.9105 42.8763C41.0783 43.4155 40.9825 43.9857 40.6477 44.4405C40.3129 44.8954 39.7969 45.1562 39.2321 45.1562H38.074C36.8959 45.1562 35.9375 46.1147 35.9375 47.2927V47.5H32.3047C31.1201 47.5 30.1562 48.4637 30.1562 49.6484V51.6016C30.1562 52.7863 31.1201 53.75 32.3047 53.75H52.8516C54.0362 53.75 55 52.7863 55 51.6016V49.6484C55 48.4637 54.0362 47.5 52.8516 47.5H52.4219V47.2927C52.4219 46.1147 51.4634 45.1562 50.2854 45.1562C49.8539 45.1562 49.4787 44.8791 49.352 44.4667L47.5006 38.4452C46.9818 36.758 46.7188 35.0075 46.7188 33.2422C46.7188 30.9805 48.5588 29.1406 50.8203 29.1406ZM52.8516 19.375C53.3901 19.375 53.8281 19.813 53.8281 20.3516V25.0391C53.8281 25.5776 53.3901 26.0156 52.8516 26.0156H52.6562V19.375H52.8516ZM20.7812 24.5562V20.8344C20.7812 20.7599 20.8226 20.693 20.8893 20.6597L21.9531 20.1277V25.2628L20.8893 24.7309C20.8226 24.6976 20.7812 24.6307 20.7812 24.5562ZM27.8125 26.2109V21.9141C27.8125 21.5905 27.5502 21.3281 27.2266 21.3281C26.9029 21.3281 26.6406 21.5905 26.6406 21.9141V25.625H23.125V19.7656H27.2266C27.5502 19.7656 27.8125 19.5033 27.8125 19.1797C27.8125 18.8566 28.0753 18.5938 28.3984 18.5938H30.1562V26.7969H28.3984C28.0753 26.7969 27.8125 26.5341 27.8125 26.2109ZM34.5703 33.5156C34.2472 33.5156 33.9844 33.2528 33.9844 32.9297V29.1406H34.5703C34.8934 29.1406 35.1562 29.4034 35.1562 29.7266V33.5156H34.5703ZM45.5469 33.2422C45.5469 35.1244 45.8273 36.9908 46.3805 38.7896L48.2318 44.8111C48.5108 45.7185 49.3361 46.3281 50.2854 46.3281C50.8173 46.3281 51.25 46.7609 51.25 47.2927V47.5H49.6552C49.3315 47.5 49.0692 47.7623 49.0692 48.0859C49.0692 48.4095 49.3315 48.6719 49.6552 48.6719H52.8516C53.3901 48.6719 53.8281 49.1099 53.8281 49.6484V51.6016C53.8281 52.1401 53.3901 52.5781 52.8516 52.5781H32.3047C31.7662 52.5781 31.3281 52.1401 31.3281 51.6016V49.6484C31.3281 49.1099 31.7662 48.6719 32.3047 48.6719H46.9208C47.2445 48.6719 47.5067 48.4095 47.5067 48.0859C47.5067 47.7623 47.2445 47.5 46.9208 47.5H37.1094V47.2927C37.1094 46.7609 37.5421 46.3281 38.074 46.3281H39.2321C40.1734 46.3281 41.0334 45.8934 41.5914 45.1352C42.1495 44.3772 42.3092 43.4269 42.0295 42.528L40.4739 37.528C40.0907 36.2963 38.9665 35.4688 37.6766 35.4688H36.5234C36.4157 35.4688 36.3281 35.3811 36.3281 35.2734V29.7266C36.3281 28.7573 35.5395 27.9688 34.5703 27.9688H31.9141C31.5909 27.9688 31.3281 27.7059 31.3281 27.3828V18.0078C31.3281 17.6847 31.5909 17.4219 31.9141 17.4219H50.8203C51.1865 17.4219 51.4844 17.7198 51.4844 18.0859V27.3047C51.4844 27.6709 51.1865 27.9688 50.8203 27.9688C47.9125 27.9688 45.5469 30.3344 45.5469 33.2422Z" fill="#4FADFF"/>
<path d="M43.3203 18.5938H33.4766C32.938 18.5938 32.5 19.0318 32.5 19.5703V25.8203C32.5 26.3588 32.938 26.7969 33.4766 26.7969H43.3203C43.8588 26.7969 44.2969 26.3588 44.2969 25.8203V19.5703C44.2969 19.0318 43.8588 18.5938 43.3203 18.5938ZM43.125 25.625H33.6719V19.7656H43.125V25.625Z" fill="#4FADFF"/>
<path d="M49.7266 25.625H46.1328C45.8091 25.625 45.5469 25.8873 45.5469 26.2109C45.5469 26.5345 45.8091 26.7969 46.1328 26.7969H49.7266C50.0502 26.7969 50.3125 26.5345 50.3125 26.2109C50.3125 25.8873 50.0502 25.625 49.7266 25.625Z" fill="#4FADFF"/>
<path d="M49.7266 23.2812H46.1328C45.8091 23.2812 45.5469 23.5436 45.5469 23.8672C45.5469 24.1908 45.8091 24.4531 46.1328 24.4531H49.7266C50.0502 24.4531 50.3125 24.1908 50.3125 23.8672C50.3125 23.5436 50.0502 23.2812 49.7266 23.2812Z" fill="#4FADFF"/>
<path d="M49.7266 20.9375H46.1328C45.8091 20.9375 45.5469 21.1998 45.5469 21.5234C45.5469 21.847 45.8091 22.1094 46.1328 22.1094H49.7266C50.0502 22.1094 50.3125 21.847 50.3125 21.5234C50.3125 21.1998 50.0502 20.9375 49.7266 20.9375Z" fill="#4FADFF"/>
<path d="M49.7266 18.5938H46.1328C45.8091 18.5938 45.5469 18.8561 45.5469 19.1797C45.5469 19.5033 45.8091 19.7656 46.1328 19.7656H49.7266C50.0502 19.7656 50.3125 19.5033 50.3125 19.1797C50.3125 18.8561 50.0502 18.5938 49.7266 18.5938Z" fill="#4FADFF"/>
</svg>
