<svg width="70" height="70" viewBox="0 0 70 70" fill="none" xmlns="http://www.w3.org/2000/svg">
<circle cx="35" cy="35" r="34" fill="#F6F7F7" stroke="#4FADFF" stroke-width="2"/>
<g clip-path="url(#clip0_9_484)">
<path d="M54.4414 22.5195C54.1032 22.3793 53.7138 22.4568 53.4551 22.7156L36.8957 39.275C36.8086 39.3621 36.743 39.4625 36.6988 39.5697C36.6555 39.6745 36.6313 39.7892 36.6306 39.9095C36.6306 39.91 36.6306 39.9104 36.6306 39.9108C36.6306 39.911 36.6306 39.9111 36.6306 39.9111C36.6306 39.9115 36.6306 39.9118 36.6306 39.9121C36.6306 39.9124 36.6306 39.9126 36.6306 39.9129C36.6306 39.9131 36.6306 39.9132 36.6306 39.9135C36.6306 39.9139 36.6306 39.9144 36.6306 39.9149C36.6306 46.0422 31.6458 51.027 25.5186 51.027C20.7166 51.027 16.81 47.1203 16.81 42.3184C16.81 38.5766 19.8541 35.5325 23.5958 35.5325C26.4895 35.5325 28.8435 37.8866 28.8435 40.7802C28.8435 42.9953 27.0414 44.7974 24.8263 44.7974C23.154 44.7974 21.7936 43.4368 21.7936 41.7646C21.7936 40.5266 22.8008 39.5194 24.0388 39.5194C24.5386 39.5194 24.9438 39.1142 24.9438 38.6144C24.9438 38.1146 24.5386 37.7094 24.0388 37.7094C21.8028 37.7094 19.9836 39.5286 19.9836 41.7646C19.9836 44.4349 22.156 46.6073 24.8263 46.6073C26.4054 46.6073 27.8397 45.976 28.8902 44.9525C28.9096 44.9361 28.9284 44.9188 28.9467 44.9006L45.5062 28.3412C46.6068 27.2406 47.2129 25.7773 47.2129 24.2208C47.2129 20.3292 44.0469 17.1631 40.1553 17.1631C37.8593 17.1631 35.7006 18.0572 34.0771 19.6807L17.5176 36.2402C17.496 36.2618 17.4757 36.2844 17.4567 36.3075C15.9378 37.8586 15 39.9812 15 42.3184C15 48.1184 19.7186 52.8369 25.5186 52.8369C29.0651 52.8369 32.2822 51.4011 34.6194 49.0798C34.6469 49.0581 34.6734 49.0346 34.6987 49.0092L51.2152 32.4928C53.6558 30.0521 55 26.8071 55 23.3556C55 22.9895 54.7795 22.6596 54.4414 22.5195ZM35.3569 20.9606C36.6386 19.6789 38.3426 18.973 40.1552 18.973C43.0489 18.973 45.4029 21.3272 45.4029 24.2208C45.4029 25.2939 44.9851 26.3026 44.2262 27.0615L30.6521 40.6356C30.5749 36.8103 27.4393 33.7225 23.5958 33.7225C23.2348 33.7225 22.8786 33.7449 22.5291 33.7883L35.3569 20.9606ZM49.9354 31.213L38.0417 43.1066C38.272 42.2036 38.4069 41.2624 38.4351 40.2954L52.9195 25.811C52.4638 27.8414 51.4427 29.7056 49.9354 31.213Z" fill="#4FADFF"/>
</g>
<defs>
<clipPath id="clip0_9_484">
<rect width="40" height="40" fill="white" transform="translate(15 15)"/>
</clipPath>
</defs>
</svg>
