<svg width="111" height="16" viewBox="0 0 111 16" fill="none" xmlns="http://www.w3.org/2000/svg">
<g opacity="0.25">
<path d="M12.0284 14.454C10.9137 15.3927 9.63038 15.862 8.17838 15.862C7.16638 15.862 6.19838 15.686 5.27438 15.334C4.35038 14.9673 3.54371 14.4393 2.85438 13.75C2.16505 13.0607 1.61505 12.2173 1.20438 11.22C0.793712 10.2227 0.588379 9.086 0.588379 7.81C0.588379 6.71 0.793712 5.69067 1.20438 4.752C1.61505 3.79867 2.17971 2.97733 2.89838 2.288C3.61705 1.584 4.46038 1.034 5.42838 0.638C6.41105 0.227333 7.46705 0.0219997 8.59638 0.0219997C9.30038 0.0219997 9.97505 0.102666 10.6204 0.263999C11.2657 0.410667 11.8597 0.638 12.4024 0.946C12.9597 1.23933 13.4584 1.59867 13.8984 2.024C14.3384 2.43467 14.6977 2.904 14.9764 3.432L11.7864 5.874C11.4784 5.258 11.0164 4.76667 10.4004 4.4C9.78438 4.01867 9.13171 3.828 8.44238 3.828C7.92905 3.828 7.45971 3.93067 7.03438 4.136C6.60905 4.34133 6.24238 4.62733 5.93438 4.994C5.62638 5.36067 5.38438 5.80067 5.20838 6.314C5.03238 6.81267 4.94438 7.36267 4.94438 7.964C4.94438 8.58 5.03238 9.13733 5.20838 9.636C5.38438 10.1347 5.62638 10.5673 5.93438 10.934C6.25705 11.286 6.63838 11.5647 7.07838 11.77C7.51838 11.9607 8.00971 12.056 8.55238 12.056C9.79905 12.056 10.899 11.5427 11.8524 10.516H9.14638V7.436H15.5704V15.752H12.0284V14.454Z" fill="#F8FDFE"/>
<path d="M18.1281 15.752V0.132H25.3001C26.0627 0.132 26.7667 0.293333 27.4121 0.616C28.0574 0.923999 28.6074 1.33467 29.0621 1.848C29.5314 2.34667 29.8981 2.926 30.1621 3.586C30.4261 4.23133 30.5581 4.884 30.5581 5.544C30.5581 6.45333 30.3601 7.304 29.9641 8.096C29.5681 8.87333 29.0181 9.51133 28.3141 10.01L31.6141 15.752H26.7741L24.0241 10.956H22.4181V15.752H18.1281ZM22.4181 7.216H25.1241C25.3881 7.216 25.6301 7.06933 25.8501 6.776C26.0847 6.48267 26.2021 6.072 26.2021 5.544C26.2021 5.00133 26.0701 4.59067 25.8061 4.312C25.5421 4.01867 25.2781 3.872 25.0141 3.872H22.4181V7.216Z" fill="#F8FDFE"/>
<path d="M37.4618 0.132H41.3778L46.7898 15.752H42.4338L41.4878 12.694H37.3298L36.4058 15.752H32.0278L37.4618 0.132ZM40.8058 9.834L39.4198 4.994L37.9678 9.834H40.8058Z" fill="#F8FDFE"/>
<path d="M60.3416 15.752V7.524L57.7236 13.31H55.4356L52.8176 7.524V15.752H48.5276V0.132H53.2136L56.5796 7.48L59.9676 0.132H64.6316V15.752H60.3416Z" fill="#F8FDFE"/>
<path d="M67.7449 15.752V0.132H74.4769C75.2396 0.132 75.9436 0.293333 76.5889 0.616C77.2343 0.923999 77.7843 1.33467 78.2389 1.848C78.7083 2.34667 79.0749 2.926 79.3389 3.586C79.6029 4.23133 79.7349 4.884 79.7349 5.544C79.7349 6.23333 79.6103 6.908 79.3609 7.568C79.1116 8.21333 78.7596 8.79267 78.3049 9.306C77.8649 9.80467 77.3223 10.208 76.6769 10.516C76.0463 10.8093 75.3496 10.956 74.5869 10.956H72.0349V15.752H67.7449ZM72.0349 7.216H74.3009C74.5649 7.216 74.8069 7.09867 75.0269 6.864C75.2616 6.61467 75.3789 6.17467 75.3789 5.544C75.3789 4.89867 75.2469 4.45867 74.9829 4.224C74.7189 3.98933 74.4549 3.872 74.1909 3.872H72.0349V7.216Z" fill="#F8FDFE"/>
<path d="M88.712 12.078C89.2106 12.078 89.636 11.968 89.988 11.748C90.34 11.528 90.626 11.242 90.846 10.89C91.066 10.5233 91.2273 10.1053 91.33 9.636C91.4326 9.16667 91.484 8.67533 91.484 8.162V0.132H95.774V8.162C95.774 9.24733 95.6346 10.2667 95.356 11.22C95.0773 12.1587 94.6446 12.9727 94.058 13.662C93.4713 14.3513 92.7306 14.894 91.836 15.29C90.956 15.686 89.9146 15.884 88.712 15.884C87.4653 15.884 86.3946 15.6787 85.5 15.268C84.62 14.8427 83.894 14.278 83.322 13.574C82.75 12.87 82.332 12.056 82.068 11.132C81.804 10.1933 81.672 9.20333 81.672 8.162V0.132H85.962V8.162C85.962 8.67533 86.0133 9.174 86.116 9.658C86.2186 10.1273 86.38 10.5453 86.6 10.912C86.82 11.264 87.0986 11.55 87.436 11.77C87.7879 11.9753 88.2133 12.078 88.712 12.078Z" fill="#F8FDFE"/>
<path d="M108.142 5.236C107.702 4.972 107.247 4.73733 106.778 4.532C106.382 4.356 105.934 4.19467 105.436 4.048C104.952 3.88667 104.475 3.806 104.006 3.806C103.624 3.806 103.316 3.86467 103.082 3.982C102.862 4.09933 102.752 4.29733 102.752 4.576C102.752 4.78133 102.818 4.95 102.95 5.082C103.082 5.214 103.272 5.33867 103.522 5.456C103.771 5.55867 104.072 5.66133 104.424 5.764C104.79 5.86667 105.201 5.99133 105.656 6.138C106.374 6.358 107.02 6.6 107.592 6.864C108.178 7.128 108.677 7.44333 109.088 7.81C109.498 8.162 109.814 8.59467 110.034 9.108C110.254 9.62133 110.364 10.2447 110.364 10.978C110.364 11.9167 110.188 12.7087 109.836 13.354C109.498 13.9847 109.044 14.4907 108.472 14.872C107.914 15.2533 107.276 15.532 106.558 15.708C105.854 15.8693 105.142 15.95 104.424 15.95C103.852 15.95 103.265 15.906 102.664 15.818C102.062 15.73 101.461 15.6053 100.86 15.444C100.273 15.2827 99.7009 15.092 99.1436 14.872C98.6009 14.652 98.0949 14.4027 97.6256 14.124L99.4736 10.362C99.9869 10.6847 100.522 10.9707 101.08 11.22C101.549 11.44 102.077 11.638 102.664 11.814C103.265 11.99 103.874 12.078 104.49 12.078C104.959 12.078 105.282 12.0193 105.458 11.902C105.648 11.77 105.744 11.6013 105.744 11.396C105.744 11.176 105.648 10.9927 105.458 10.846C105.282 10.6847 105.032 10.5453 104.71 10.428C104.387 10.3107 104.013 10.1933 103.588 10.076C103.177 9.95867 102.737 9.81933 102.268 9.658C101.578 9.42333 100.984 9.174 100.486 8.91C99.9869 8.63133 99.5762 8.32333 99.2536 7.986C98.9309 7.634 98.6889 7.238 98.5276 6.798C98.3809 6.358 98.3076 5.852 98.3076 5.28C98.3076 4.41467 98.4616 3.652 98.7696 2.992C99.0922 2.332 99.5249 1.782 100.068 1.342C100.61 0.901999 101.226 0.571999 101.916 0.351999C102.62 0.117333 103.36 0 104.138 0C104.71 0 105.267 0.0586668 105.81 0.176C106.352 0.278667 106.873 0.418 107.372 0.594C107.885 0.755333 108.362 0.938666 108.802 1.144C109.242 1.33467 109.638 1.518 109.99 1.694L108.142 5.236Z" fill="#F8FDFE"/>
</g>
</svg>
