<svg width="24" height="25" viewBox="0 0 24 25" fill="none" xmlns="http://www.w3.org/2000/svg">
<path d="M3.58579 4.08579C3.21071 4.46086 3 4.96957 3 5.5V6.5C3 14.784 9.716 21.5 18 21.5H19C19.5304 21.5 20.0391 21.2893 20.4142 20.9142C20.7893 20.5391 21 20.0304 21 19.5V16.221C21.0001 16.011 20.934 15.8064 20.8112 15.636C20.6885 15.4657 20.5152 15.3383 20.316 15.272L15.823 13.774C15.5947 13.6981 15.3466 13.7071 15.1244 13.7993C14.9021 13.8915 14.7205 14.0607 14.613 14.276L13.483 16.533C11.0345 15.4267 9.07332 13.4655 7.967 11.017L10.224 9.887C10.4393 9.77945 10.6085 9.5979 10.7007 9.37564C10.7929 9.15339 10.8019 8.90534 10.726 8.677L9.228 4.184C9.16171 3.98496 9.03449 3.8118 8.86436 3.68905C8.69422 3.5663 8.48979 3.50016 8.28 3.5H5C4.46957 3.5 3.96086 3.71071 3.58579 4.08579Z" stroke="#0074D9" stroke-width="2" stroke-linecap="round" stroke-linejoin="round"/>
</svg>
